<svg width="420" height="180" viewBox="0 0 420 180" fill="none" xmlns="http://www.w3.org/2000/svg" role="img" aria-labelledby="title desc">
  <title id="title">Most committed languages</title>
  <desc id="desc">A local most committed languages summary card.</desc>
  <rect width="420" height="180" rx="10" fill="#111827"/>
  <rect x="1" y="1" width="418" height="178" rx="9" stroke="#334155"/>
  <text x="24" y="36" fill="#60A5FA" font-family="Segoe UI, Arial, sans-serif" font-size="18" font-weight="700">Most Committed Languages</text>
  <text x="24" y="64" fill="#94A3B8" font-family="Segoe UI, Arial, sans-serif" font-size="12">research plus engineering loop</text>
  <g font-family="Segoe UI, Arial, sans-serif" font-size="12" font-weight="700">
    <path d="M72 146A54 54 0 1 1 126 92" stroke="#1E293B" stroke-width="16" stroke-linecap="round"/>
    <path d="M72 146A54 54 0 0 1 72 38A54 54 0 0 1 126 92" stroke="#3572A5" stroke-width="16" stroke-linecap="round"/>
    <path d="M126 92A54 54 0 0 1 89 143" stroke="#3178C6" stroke-width="16" stroke-linecap="round"/>
    <path d="M89 143A54 54 0 0 1 72 146" stroke="#F7DF1E" stroke-width="16" stroke-linecap="round"/>
    <circle cx="226" cy="88" r="5" fill="#3572A5"/><text x="242" y="92" fill="#E5E7EB">Python / modeling</text>
    <circle cx="226" cy="116" r="5" fill="#3178C6"/><text x="242" y="120" fill="#E5E7EB">TypeScript / apps</text>
    <circle cx="226" cy="144" r="5" fill="#F7DF1E"/><text x="242" y="148" fill="#E5E7EB">JavaScript / tooling</text>
  </g>
</svg>
